%TF.GenerationSoftware,KiCad,Pcbnew,9.0.0*%
%TF.CreationDate,2025-05-29T22:21:52+02:00*%
%TF.ProjectId,hunity_tester_hat,68756e69-7479-45f7-9465-737465725f68,1.0*%
%TF.SameCoordinates,Original*%
%TF.FileFunction,Soldermask,Top*%
%TF.FilePolarity,Negative*%
%FSLAX46Y46*%
G04 Gerber Fmt 4.6, Leading zero omitted, Abs format (unit mm)*
G04 Created by KiCad (PCBNEW 9.0.0) date 2025-05-29 22:21:52*
%MOMM*%
%LPD*%
G01*
G04 APERTURE LIST*
G04 Aperture macros list*
%AMRoundRect*
0 Rectangle with rounded corners*
0 $1 Rounding radius*
0 $2 $3 $4 $5 $6 $7 $8 $9 X,Y pos of 4 corners*
0 Add a 4 corners polygon primitive as box body*
4,1,4,$2,$3,$4,$5,$6,$7,$8,$9,$2,$3,0*
0 Add four circle primitives for the rounded corners*
1,1,$1+$1,$2,$3*
1,1,$1+$1,$4,$5*
1,1,$1+$1,$6,$7*
1,1,$1+$1,$8,$9*
0 Add four rect primitives between the rounded corners*
20,1,$1+$1,$2,$3,$4,$5,0*
20,1,$1+$1,$4,$5,$6,$7,0*
20,1,$1+$1,$6,$7,$8,$9,0*
20,1,$1+$1,$8,$9,$2,$3,0*%
G04 Aperture macros list end*
%ADD10RoundRect,0.218750X0.256250X-0.218750X0.256250X0.218750X-0.256250X0.218750X-0.256250X-0.218750X0*%
%ADD11RoundRect,0.225000X0.225000X0.250000X-0.225000X0.250000X-0.225000X-0.250000X0.225000X-0.250000X0*%
%ADD12RoundRect,0.150000X-0.150000X0.512500X-0.150000X-0.512500X0.150000X-0.512500X0.150000X0.512500X0*%
%ADD13RoundRect,0.200000X-0.275000X0.200000X-0.275000X-0.200000X0.275000X-0.200000X0.275000X0.200000X0*%
%ADD14C,1.700000*%
%ADD15R,1.700000X1.700000*%
%ADD16C,1.524000*%
%ADD17C,4.000000*%
G04 APERTURE END LIST*
D10*
%TO.C,D2*%
X80609000Y-34645000D03*
X80609000Y-33070000D03*
%TD*%
D11*
%TO.C,C2*%
X84044000Y-37418000D03*
X82494000Y-37418000D03*
%TD*%
D12*
%TO.C,U2*%
X84244000Y-33384500D03*
X83294000Y-33384500D03*
X82344000Y-33384500D03*
X82344000Y-35659500D03*
X84244000Y-35659500D03*
%TD*%
D13*
%TO.C,R2*%
X80609000Y-36172000D03*
X80609000Y-37822000D03*
%TD*%
D11*
%TO.C,C1*%
X84506000Y-31615000D03*
X82956000Y-31615000D03*
%TD*%
D14*
%TO.C,J2*%
X88379000Y-74228000D03*
X90919000Y-74228000D03*
X93459000Y-74228000D03*
X95999000Y-74228000D03*
X98539000Y-74228000D03*
X101079000Y-74228000D03*
D15*
X103619000Y-74228000D03*
D14*
X106159000Y-74228000D03*
X108699000Y-74228000D03*
X111239000Y-74228000D03*
%TD*%
%TO.C,J1*%
X88379000Y-34348000D03*
X90919000Y-34348000D03*
X93459000Y-34348000D03*
X95999000Y-34348000D03*
X98539000Y-34348000D03*
X101079000Y-34348000D03*
D15*
X103619000Y-34348000D03*
D14*
X106159000Y-34348000D03*
X108699000Y-34348000D03*
X111239000Y-34348000D03*
%TD*%
D16*
%TO.C,U1*%
X77309000Y-44551000D03*
X77309000Y-52551000D03*
X77309000Y-60551000D03*
X77309000Y-68551000D03*
X122309000Y-44551000D03*
X122309000Y-52551000D03*
X122309000Y-60551000D03*
X122309000Y-68551000D03*
D17*
X99809000Y-56551000D03*
%TD*%
M02*
