%TF.GenerationSoftware,KiCad,Pcbnew,9.0.0*%
%TF.CreationDate,2025-05-29T22:26:06+02:00*%
%TF.ProjectId,hunity_tester_hat,68756e69-7479-45f7-9465-737465725f68,1.0*%
%TF.SameCoordinates,Original*%
%TF.FileFunction,Legend,Bot*%
%TF.FilePolarity,Positive*%
%FSLAX46Y46*%
G04 Gerber Fmt 4.6, Leading zero omitted, Abs format (unit mm)*
G04 Created by KiCad (PCBNEW 9.0.0) date 2025-05-29 22:26:06*
%MOMM*%
%LPD*%
G01*
G04 APERTURE LIST*
%ADD10C,0.400000*%
%ADD11C,0.175000*%
%ADD12C,0.100000*%
G04 APERTURE END LIST*
D10*
X92495916Y-53313227D02*
X92394568Y-53323073D01*
X92294667Y-53339410D01*
X92196833Y-53362278D01*
X92101687Y-53391720D01*
X92009847Y-53427776D01*
X91921936Y-53470489D01*
X91838571Y-53519898D01*
X91798788Y-53547127D01*
X91760374Y-53576046D01*
X91723408Y-53606660D01*
X91687965Y-53638975D01*
X91654125Y-53672994D01*
X91621964Y-53708724D01*
X91591560Y-53746170D01*
X91562991Y-53785336D01*
X91536334Y-53826229D01*
X91511666Y-53868853D01*
X91489066Y-53913213D01*
X91468609Y-53959314D01*
X91450376Y-54007162D01*
X91434441Y-54056763D01*
X91420884Y-54108120D01*
X91409782Y-54161239D01*
X91401211Y-54216126D01*
X91395251Y-54272785D01*
X90626195Y-54272779D01*
X90633662Y-54174711D01*
X90645412Y-54080244D01*
X90661348Y-53989340D01*
X90681372Y-53901961D01*
X90705386Y-53818071D01*
X90733290Y-53737632D01*
X90764988Y-53660605D01*
X90800380Y-53586955D01*
X90839369Y-53516643D01*
X90881857Y-53449632D01*
X90927744Y-53385884D01*
X90976934Y-53325362D01*
X91029328Y-53268029D01*
X91084828Y-53213846D01*
X91143335Y-53162777D01*
X91204752Y-53114785D01*
X91268980Y-53069830D01*
X91335920Y-53027877D01*
X91405476Y-52988888D01*
X91477548Y-52952824D01*
X91552039Y-52919650D01*
X91628850Y-52889326D01*
X91707883Y-52861817D01*
X91789040Y-52837084D01*
X91872223Y-52815089D01*
X91957333Y-52795796D01*
X92132944Y-52765164D01*
X92315086Y-52744888D01*
X92502975Y-52734668D01*
X92495916Y-53313227D01*
G36*
X92495916Y-53313227D02*
G01*
X92394568Y-53323073D01*
X92294667Y-53339410D01*
X92196833Y-53362278D01*
X92101687Y-53391720D01*
X92009847Y-53427776D01*
X91921936Y-53470489D01*
X91838571Y-53519898D01*
X91798788Y-53547127D01*
X91760374Y-53576046D01*
X91723408Y-53606660D01*
X91687965Y-53638975D01*
X91654125Y-53672994D01*
X91621964Y-53708724D01*
X91591560Y-53746170D01*
X91562991Y-53785336D01*
X91536334Y-53826229D01*
X91511666Y-53868853D01*
X91489066Y-53913213D01*
X91468609Y-53959314D01*
X91450376Y-54007162D01*
X91434441Y-54056763D01*
X91420884Y-54108120D01*
X91409782Y-54161239D01*
X91401211Y-54216126D01*
X91395251Y-54272785D01*
X90626195Y-54272779D01*
X90633662Y-54174711D01*
X90645412Y-54080244D01*
X90661348Y-53989340D01*
X90681372Y-53901961D01*
X90705386Y-53818071D01*
X90733290Y-53737632D01*
X90764988Y-53660605D01*
X90800380Y-53586955D01*
X90839369Y-53516643D01*
X90881857Y-53449632D01*
X90927744Y-53385884D01*
X90976934Y-53325362D01*
X91029328Y-53268029D01*
X91084828Y-53213846D01*
X91143335Y-53162777D01*
X91204752Y-53114785D01*
X91268980Y-53069830D01*
X91335920Y-53027877D01*
X91405476Y-52988888D01*
X91477548Y-52952824D01*
X91552039Y-52919650D01*
X91628850Y-52889326D01*
X91707883Y-52861817D01*
X91789040Y-52837084D01*
X91872223Y-52815089D01*
X91957333Y-52795796D01*
X92132944Y-52765164D01*
X92315086Y-52744888D01*
X92502975Y-52734668D01*
X92495916Y-53313227D01*
G37*
X85242803Y-53546058D02*
X81453966Y-53546058D01*
X81453966Y-52805225D01*
X85242803Y-52805225D01*
X85242803Y-53546058D01*
G36*
X85242803Y-53546058D02*
G01*
X81453966Y-53546058D01*
X81453966Y-52805225D01*
X85242803Y-52805225D01*
X85242803Y-53546058D01*
G37*
X94422769Y-54180502D02*
X94412976Y-54247691D01*
X94399856Y-54312143D01*
X94383500Y-54373938D01*
X94364003Y-54433154D01*
X94341457Y-54489871D01*
X94315954Y-54544166D01*
X94287589Y-54596119D01*
X94256454Y-54645809D01*
X94222643Y-54693314D01*
X94186247Y-54738714D01*
X94147360Y-54782086D01*
X94106076Y-54823510D01*
X94062487Y-54863065D01*
X94016686Y-54900829D01*
X93968767Y-54936882D01*
X93918821Y-54971301D01*
X93866943Y-55004166D01*
X93813226Y-55035556D01*
X93757761Y-55065549D01*
X93641964Y-55121662D01*
X93520297Y-55173133D01*
X93393504Y-55220594D01*
X93262328Y-55264676D01*
X93127514Y-55306008D01*
X92989806Y-55345221D01*
X92920422Y-55368097D01*
X92850128Y-55389319D01*
X92779338Y-55409218D01*
X92708466Y-55428125D01*
X92568126Y-55464286D01*
X92432415Y-55500446D01*
X92167832Y-55592169D01*
X92043478Y-55637367D01*
X91983286Y-55660379D01*
X91924416Y-55683887D01*
X91868397Y-55712437D01*
X91814270Y-55742620D01*
X91762272Y-55774580D01*
X91712640Y-55808463D01*
X91665613Y-55844412D01*
X91621428Y-55882574D01*
X91580323Y-55923091D01*
X91542535Y-55966110D01*
X91524960Y-55988603D01*
X91508303Y-56011775D01*
X91492594Y-56035644D01*
X91477864Y-56060230D01*
X91464141Y-56085549D01*
X91451456Y-56111620D01*
X91439837Y-56138461D01*
X91429316Y-56166090D01*
X91419921Y-56194525D01*
X91411682Y-56223785D01*
X91404629Y-56253887D01*
X91398792Y-56284849D01*
X91394200Y-56316690D01*
X91390884Y-56349427D01*
X91388872Y-56383079D01*
X91388195Y-56417664D01*
X91390332Y-56476441D01*
X91396611Y-56532425D01*
X91406833Y-56585679D01*
X91420799Y-56636262D01*
X91438310Y-56684235D01*
X91459167Y-56729660D01*
X91483171Y-56772596D01*
X91510124Y-56813105D01*
X91539825Y-56851247D01*
X91572077Y-56887083D01*
X91606680Y-56920674D01*
X91643435Y-56952080D01*
X91682144Y-56981362D01*
X91722607Y-57008581D01*
X91764625Y-57033798D01*
X91808000Y-57057073D01*
X91852533Y-57078467D01*
X91898024Y-57098040D01*
X91944275Y-57115855D01*
X91991087Y-57131970D01*
X92085596Y-57159346D01*
X92179961Y-57180656D01*
X92272590Y-57196385D01*
X92361890Y-57207018D01*
X92446272Y-57213042D01*
X92524142Y-57214942D01*
X92635980Y-57211607D01*
X92746143Y-57201492D01*
X92853951Y-57184432D01*
X92958720Y-57160261D01*
X93059768Y-57128814D01*
X93156413Y-57089925D01*
X93202871Y-57067639D01*
X93247973Y-57043430D01*
X93291633Y-57017278D01*
X93333766Y-56989162D01*
X93374287Y-56959062D01*
X93413110Y-56926957D01*
X93450151Y-56892827D01*
X93485323Y-56856650D01*
X93518542Y-56818405D01*
X93549722Y-56778074D01*
X93578779Y-56735633D01*
X93605626Y-56691064D01*
X93630179Y-56644345D01*
X93652352Y-56595456D01*
X93672060Y-56544375D01*
X93689218Y-56491083D01*
X93703740Y-56435559D01*
X93715542Y-56377781D01*
X93724537Y-56317730D01*
X93730642Y-56255384D01*
X94513811Y-56255390D01*
X94506781Y-56359765D01*
X94495027Y-56459941D01*
X94478660Y-56555974D01*
X94457794Y-56647924D01*
X94432540Y-56735848D01*
X94403011Y-56819805D01*
X94369320Y-56899852D01*
X94331579Y-56976048D01*
X94289900Y-57048452D01*
X94244395Y-57117120D01*
X94195178Y-57182111D01*
X94142360Y-57243484D01*
X94086054Y-57301296D01*
X94026372Y-57355606D01*
X93963427Y-57406472D01*
X93897331Y-57453952D01*
X93828196Y-57498104D01*
X93756135Y-57538985D01*
X93681260Y-57576656D01*
X93603684Y-57611172D01*
X93523519Y-57642593D01*
X93440877Y-57670977D01*
X93355871Y-57696382D01*
X93268614Y-57718866D01*
X93179216Y-57738487D01*
X93087792Y-57755303D01*
X92899313Y-57780754D01*
X92704074Y-57795683D01*
X92502975Y-57800556D01*
X92334232Y-57795723D01*
X92165065Y-57781071D01*
X91997036Y-57756373D01*
X91831704Y-57721401D01*
X91670630Y-57675930D01*
X91515375Y-57619730D01*
X91367499Y-57552574D01*
X91228563Y-57474236D01*
X91162936Y-57430802D01*
X91100129Y-57384488D01*
X91040337Y-57335264D01*
X90983755Y-57283102D01*
X90930579Y-57227974D01*
X90881003Y-57169851D01*
X90835223Y-57108705D01*
X90793434Y-57044508D01*
X90755831Y-56977231D01*
X90722608Y-56906845D01*
X90693961Y-56833323D01*
X90670086Y-56756635D01*
X90651176Y-56676754D01*
X90637428Y-56593650D01*
X90629036Y-56507297D01*
X90626195Y-56417664D01*
X90628183Y-56339846D01*
X90634073Y-56265088D01*
X90643758Y-56193306D01*
X90657132Y-56124417D01*
X90674088Y-56058340D01*
X90694517Y-55994992D01*
X90718313Y-55934289D01*
X90745368Y-55876150D01*
X90775576Y-55820491D01*
X90808829Y-55767230D01*
X90845019Y-55716284D01*
X90884041Y-55667570D01*
X90925785Y-55621006D01*
X90970146Y-55576510D01*
X91017015Y-55533997D01*
X91066286Y-55493387D01*
X91117852Y-55454595D01*
X91171605Y-55417539D01*
X91227437Y-55382138D01*
X91285243Y-55348307D01*
X91406343Y-55285028D01*
X91534048Y-55227040D01*
X91667499Y-55173683D01*
X91805839Y-55124295D01*
X91948209Y-55078214D01*
X92093752Y-55034778D01*
X92165465Y-55011599D01*
X92237509Y-54989578D01*
X92381266Y-54948346D01*
X92658196Y-54872498D01*
X92811007Y-54827063D01*
X92973160Y-54773609D01*
X93055286Y-54743021D01*
X93136802Y-54709405D01*
X93216727Y-54672420D01*
X93294078Y-54631725D01*
X93367874Y-54586978D01*
X93437132Y-54537839D01*
X93500872Y-54483967D01*
X93530365Y-54455149D01*
X93558110Y-54425020D01*
X93583985Y-54393537D01*
X93607866Y-54360657D01*
X93629631Y-54326338D01*
X93649158Y-54290538D01*
X93666322Y-54253213D01*
X93681002Y-54214321D01*
X93693076Y-54173819D01*
X93702419Y-54131665D01*
X94429140Y-54110498D01*
X94422769Y-54180502D01*
G36*
X94422769Y-54180502D02*
G01*
X94412976Y-54247691D01*
X94399856Y-54312143D01*
X94383500Y-54373938D01*
X94364003Y-54433154D01*
X94341457Y-54489871D01*
X94315954Y-54544166D01*
X94287589Y-54596119D01*
X94256454Y-54645809D01*
X94222643Y-54693314D01*
X94186247Y-54738714D01*
X94147360Y-54782086D01*
X94106076Y-54823510D01*
X94062487Y-54863065D01*
X94016686Y-54900829D01*
X93968767Y-54936882D01*
X93918821Y-54971301D01*
X93866943Y-55004166D01*
X93813226Y-55035556D01*
X93757761Y-55065549D01*
X93641964Y-55121662D01*
X93520297Y-55173133D01*
X93393504Y-55220594D01*
X93262328Y-55264676D01*
X93127514Y-55306008D01*
X92989806Y-55345221D01*
X92920422Y-55368097D01*
X92850128Y-55389319D01*
X92779338Y-55409218D01*
X92708466Y-55428125D01*
X92568126Y-55464286D01*
X92432415Y-55500446D01*
X92167832Y-55592169D01*
X92043478Y-55637367D01*
X91983286Y-55660379D01*
X91924416Y-55683887D01*
X91868397Y-55712437D01*
X91814270Y-55742620D01*
X91762272Y-55774580D01*
X91712640Y-55808463D01*
X91665613Y-55844412D01*
X91621428Y-55882574D01*
X91580323Y-55923091D01*
X91542535Y-55966110D01*
X91524960Y-55988603D01*
X91508303Y-56011775D01*
X91492594Y-56035644D01*
X91477864Y-56060230D01*
X91464141Y-56085549D01*
X91451456Y-56111620D01*
X91439837Y-56138461D01*
X91429316Y-56166090D01*
X91419921Y-56194525D01*
X91411682Y-56223785D01*
X91404629Y-56253887D01*
X91398792Y-56284849D01*
X91394200Y-56316690D01*
X91390884Y-56349427D01*
X91388872Y-56383079D01*
X91388195Y-56417664D01*
X91390332Y-56476441D01*
X91396611Y-56532425D01*
X91406833Y-56585679D01*
X91420799Y-56636262D01*
X91438310Y-56684235D01*
X91459167Y-56729660D01*
X91483171Y-56772596D01*
X91510124Y-56813105D01*
X91539825Y-56851247D01*
X91572077Y-56887083D01*
X91606680Y-56920674D01*
X91643435Y-56952080D01*
X91682144Y-56981362D01*
X91722607Y-57008581D01*
X91764625Y-57033798D01*
X91808000Y-57057073D01*
X91852533Y-57078467D01*
X91898024Y-57098040D01*
X91944275Y-57115855D01*
X91991087Y-57131970D01*
X92085596Y-57159346D01*
X92179961Y-57180656D01*
X92272590Y-57196385D01*
X92361890Y-57207018D01*
X92446272Y-57213042D01*
X92524142Y-57214942D01*
X92635980Y-57211607D01*
X92746143Y-57201492D01*
X92853951Y-57184432D01*
X92958720Y-57160261D01*
X93059768Y-57128814D01*
X93156413Y-57089925D01*
X93202871Y-57067639D01*
X93247973Y-57043430D01*
X93291633Y-57017278D01*
X93333766Y-56989162D01*
X93374287Y-56959062D01*
X93413110Y-56926957D01*
X93450151Y-56892827D01*
X93485323Y-56856650D01*
X93518542Y-56818405D01*
X93549722Y-56778074D01*
X93578779Y-56735633D01*
X93605626Y-56691064D01*
X93630179Y-56644345D01*
X93652352Y-56595456D01*
X93672060Y-56544375D01*
X93689218Y-56491083D01*
X93703740Y-56435559D01*
X93715542Y-56377781D01*
X93724537Y-56317730D01*
X93730642Y-56255384D01*
X94513811Y-56255390D01*
X94506781Y-56359765D01*
X94495027Y-56459941D01*
X94478660Y-56555974D01*
X94457794Y-56647924D01*
X94432540Y-56735848D01*
X94403011Y-56819805D01*
X94369320Y-56899852D01*
X94331579Y-56976048D01*
X94289900Y-57048452D01*
X94244395Y-57117120D01*
X94195178Y-57182111D01*
X94142360Y-57243484D01*
X94086054Y-57301296D01*
X94026372Y-57355606D01*
X93963427Y-57406472D01*
X93897331Y-57453952D01*
X93828196Y-57498104D01*
X93756135Y-57538985D01*
X93681260Y-57576656D01*
X93603684Y-57611172D01*
X93523519Y-57642593D01*
X93440877Y-57670977D01*
X93355871Y-57696382D01*
X93268614Y-57718866D01*
X93179216Y-57738487D01*
X93087792Y-57755303D01*
X92899313Y-57780754D01*
X92704074Y-57795683D01*
X92502975Y-57800556D01*
X92334232Y-57795723D01*
X92165065Y-57781071D01*
X91997036Y-57756373D01*
X91831704Y-57721401D01*
X91670630Y-57675930D01*
X91515375Y-57619730D01*
X91367499Y-57552574D01*
X91228563Y-57474236D01*
X91162936Y-57430802D01*
X91100129Y-57384488D01*
X91040337Y-57335264D01*
X90983755Y-57283102D01*
X90930579Y-57227974D01*
X90881003Y-57169851D01*
X90835223Y-57108705D01*
X90793434Y-57044508D01*
X90755831Y-56977231D01*
X90722608Y-56906845D01*
X90693961Y-56833323D01*
X90670086Y-56756635D01*
X90651176Y-56676754D01*
X90637428Y-56593650D01*
X90629036Y-56507297D01*
X90626195Y-56417664D01*
X90628183Y-56339846D01*
X90634073Y-56265088D01*
X90643758Y-56193306D01*
X90657132Y-56124417D01*
X90674088Y-56058340D01*
X90694517Y-55994992D01*
X90718313Y-55934289D01*
X90745368Y-55876150D01*
X90775576Y-55820491D01*
X90808829Y-55767230D01*
X90845019Y-55716284D01*
X90884041Y-55667570D01*
X90925785Y-55621006D01*
X90970146Y-55576510D01*
X91017015Y-55533997D01*
X91066286Y-55493387D01*
X91117852Y-55454595D01*
X91171605Y-55417539D01*
X91227437Y-55382138D01*
X91285243Y-55348307D01*
X91406343Y-55285028D01*
X91534048Y-55227040D01*
X91667499Y-55173683D01*
X91805839Y-55124295D01*
X91948209Y-55078214D01*
X92093752Y-55034778D01*
X92165465Y-55011599D01*
X92237509Y-54989578D01*
X92381266Y-54948346D01*
X92658196Y-54872498D01*
X92811007Y-54827063D01*
X92973160Y-54773609D01*
X93055286Y-54743021D01*
X93136802Y-54709405D01*
X93216727Y-54672420D01*
X93294078Y-54631725D01*
X93367874Y-54586978D01*
X93437132Y-54537839D01*
X93500872Y-54483967D01*
X93530365Y-54455149D01*
X93558110Y-54425020D01*
X93583985Y-54393537D01*
X93607866Y-54360657D01*
X93629631Y-54326338D01*
X93649158Y-54290538D01*
X93666322Y-54253213D01*
X93681002Y-54214321D01*
X93693076Y-54173819D01*
X93702419Y-54131665D01*
X94429140Y-54110498D01*
X94422769Y-54180502D01*
G37*
X107051531Y-53376722D02*
X106282476Y-53376722D01*
X106282476Y-52805219D01*
X107051531Y-52805219D01*
X107051531Y-53376722D01*
G36*
X107051531Y-53376722D02*
G01*
X106282476Y-53376722D01*
X106282476Y-52805219D01*
X107051531Y-52805219D01*
X107051531Y-53376722D01*
G37*
X96058977Y-56579951D02*
X98669533Y-52805225D01*
X99410366Y-52805225D01*
X96108367Y-57730005D01*
X95325200Y-57730005D01*
X95325200Y-52805225D01*
X96037810Y-52805225D01*
X96058977Y-56579951D01*
G36*
X96058977Y-56579951D02*
G01*
X98669533Y-52805225D01*
X99410366Y-52805225D01*
X96108367Y-57730005D01*
X95325200Y-57730005D01*
X95325200Y-52805225D01*
X96037810Y-52805225D01*
X96058977Y-56579951D01*
G37*
X83718801Y-57730005D02*
X82963857Y-57730005D01*
X82963857Y-54420948D01*
X83718801Y-54420948D01*
X83718801Y-57730005D01*
G36*
X83718801Y-57730005D02*
G01*
X82963857Y-57730005D01*
X82963857Y-54420948D01*
X83718801Y-54420948D01*
X83718801Y-57730005D01*
G37*
X107051531Y-57730005D02*
X106289533Y-57730005D01*
X106289533Y-54272779D01*
X107051531Y-54272779D01*
X107051531Y-57730005D01*
G36*
X107051531Y-57730005D02*
G01*
X106289533Y-57730005D01*
X106289533Y-54272779D01*
X107051531Y-54272779D01*
X107051531Y-57730005D01*
G37*
X115546422Y-53454334D02*
X115450994Y-53460196D01*
X115357885Y-53469815D01*
X115267144Y-53483140D01*
X115178816Y-53500126D01*
X115092947Y-53520724D01*
X115009585Y-53544887D01*
X114928776Y-53572566D01*
X114850566Y-53603713D01*
X114775003Y-53638282D01*
X114702131Y-53676224D01*
X114631998Y-53717491D01*
X114564651Y-53762036D01*
X114500135Y-53809811D01*
X114438498Y-53860767D01*
X114379786Y-53914858D01*
X114324045Y-53972035D01*
X114271323Y-54032250D01*
X114221664Y-54095457D01*
X114175117Y-54161606D01*
X114131727Y-54230651D01*
X114091540Y-54302543D01*
X114054605Y-54377234D01*
X114020966Y-54454677D01*
X113990671Y-54534825D01*
X113963765Y-54617628D01*
X113940297Y-54703040D01*
X113920311Y-54791012D01*
X113903855Y-54881497D01*
X113890974Y-54974447D01*
X113881716Y-55069814D01*
X113876128Y-55167551D01*
X113874254Y-55267609D01*
X113876251Y-55370912D01*
X113882207Y-55471763D01*
X113892073Y-55570107D01*
X113905798Y-55665891D01*
X113923331Y-55759060D01*
X113944622Y-55849560D01*
X113969621Y-55937337D01*
X113998278Y-56022336D01*
X114030541Y-56104503D01*
X114066361Y-56183784D01*
X114105687Y-56260124D01*
X114148470Y-56333470D01*
X114194657Y-56403767D01*
X114244200Y-56470960D01*
X114297047Y-56534997D01*
X114353149Y-56595821D01*
X114412455Y-56653380D01*
X114474914Y-56707618D01*
X114540477Y-56758482D01*
X114609092Y-56805917D01*
X114680709Y-56849869D01*
X114755279Y-56890284D01*
X114832750Y-56927107D01*
X114913073Y-56960285D01*
X114996196Y-56989762D01*
X115082070Y-57015486D01*
X115170644Y-57037400D01*
X115261867Y-57055452D01*
X115355690Y-57069587D01*
X115452062Y-57079750D01*
X115550933Y-57085888D01*
X115652251Y-57087946D01*
X115749624Y-57085992D01*
X115844604Y-57080165D01*
X115937151Y-57070523D01*
X116027230Y-57057119D01*
X116114803Y-57040011D01*
X116199832Y-57019252D01*
X116282279Y-56994900D01*
X116362108Y-56967009D01*
X116439281Y-56935635D01*
X116513760Y-56900834D01*
X116585508Y-56862660D01*
X116654487Y-56821171D01*
X116720660Y-56776420D01*
X116783990Y-56728464D01*
X116844439Y-56677359D01*
X116901969Y-56623160D01*
X116956543Y-56565922D01*
X117008124Y-56505701D01*
X117056675Y-56442552D01*
X117102157Y-56376532D01*
X117144533Y-56307695D01*
X117183766Y-56236097D01*
X117219818Y-56161794D01*
X117252652Y-56084842D01*
X117282230Y-56005295D01*
X117308516Y-55923210D01*
X117331471Y-55838642D01*
X117351058Y-55751646D01*
X117367239Y-55662279D01*
X117379978Y-55570595D01*
X117389236Y-55476650D01*
X117394976Y-55380500D01*
X118164034Y-55380506D01*
X118156648Y-55516567D01*
X118143810Y-55649530D01*
X118125604Y-55779314D01*
X118102119Y-55905841D01*
X118073440Y-56029029D01*
X118039654Y-56148799D01*
X118000847Y-56265071D01*
X117957107Y-56377764D01*
X117908520Y-56486798D01*
X117855172Y-56592094D01*
X117797150Y-56693570D01*
X117734540Y-56791148D01*
X117667429Y-56884746D01*
X117595904Y-56974286D01*
X117520051Y-57059686D01*
X117439956Y-57140867D01*
X117355707Y-57217748D01*
X117267390Y-57290250D01*
X117175090Y-57358292D01*
X117078896Y-57421794D01*
X116978893Y-57480676D01*
X116875168Y-57534859D01*
X116767808Y-57584261D01*
X116656899Y-57628803D01*
X116542527Y-57668405D01*
X116424780Y-57702986D01*
X116303743Y-57732467D01*
X116179504Y-57756768D01*
X116052148Y-57775808D01*
X115921764Y-57789507D01*
X115788436Y-57797785D01*
X115652251Y-57800562D01*
X115509038Y-57797822D01*
X115369170Y-57789634D01*
X115232725Y-57776052D01*
X115099782Y-57757126D01*
X114970421Y-57732909D01*
X114844719Y-57703452D01*
X114722757Y-57668807D01*
X114604612Y-57629024D01*
X114490363Y-57584157D01*
X114380090Y-57534257D01*
X114273871Y-57479375D01*
X114171784Y-57419563D01*
X114073909Y-57354873D01*
X113980325Y-57285356D01*
X113891109Y-57211064D01*
X113806342Y-57132049D01*
X113726102Y-57048363D01*
X113650467Y-56960056D01*
X113579517Y-56867182D01*
X113513330Y-56769791D01*
X113451985Y-56667935D01*
X113395561Y-56561665D01*
X113344137Y-56451035D01*
X113297791Y-56336094D01*
X113256603Y-56216895D01*
X113220650Y-56093490D01*
X113190013Y-55965930D01*
X113164769Y-55834266D01*
X113144998Y-55698552D01*
X113130778Y-55558837D01*
X113122188Y-55415174D01*
X113119308Y-55267615D01*
X113122165Y-55127005D01*
X113130675Y-54989649D01*
X113144742Y-54855619D01*
X113164273Y-54724985D01*
X113189173Y-54597819D01*
X113219348Y-54474191D01*
X113254703Y-54354173D01*
X113295145Y-54237835D01*
X113340579Y-54125249D01*
X113390910Y-54016486D01*
X113446045Y-53911616D01*
X113505889Y-53810712D01*
X113570347Y-53713843D01*
X113639326Y-53621081D01*
X113712731Y-53532498D01*
X113790468Y-53448163D01*
X113872442Y-53368149D01*
X113958559Y-53292526D01*
X114048725Y-53221365D01*
X114142846Y-53154737D01*
X114240827Y-53092714D01*
X114342574Y-53035366D01*
X114447993Y-52982765D01*
X114556989Y-52934981D01*
X114669468Y-52892086D01*
X114785335Y-52854150D01*
X114904497Y-52821245D01*
X115026859Y-52793442D01*
X115152327Y-52770812D01*
X115280807Y-52753425D01*
X115412203Y-52741354D01*
X115546422Y-52734668D01*
X115546422Y-53454334D01*
G36*
X115546422Y-53454334D02*
G01*
X115450994Y-53460196D01*
X115357885Y-53469815D01*
X115267144Y-53483140D01*
X115178816Y-53500126D01*
X115092947Y-53520724D01*
X115009585Y-53544887D01*
X114928776Y-53572566D01*
X114850566Y-53603713D01*
X114775003Y-53638282D01*
X114702131Y-53676224D01*
X114631998Y-53717491D01*
X114564651Y-53762036D01*
X114500135Y-53809811D01*
X114438498Y-53860767D01*
X114379786Y-53914858D01*
X114324045Y-53972035D01*
X114271323Y-54032250D01*
X114221664Y-54095457D01*
X114175117Y-54161606D01*
X114131727Y-54230651D01*
X114091540Y-54302543D01*
X114054605Y-54377234D01*
X114020966Y-54454677D01*
X113990671Y-54534825D01*
X113963765Y-54617628D01*
X113940297Y-54703040D01*
X113920311Y-54791012D01*
X113903855Y-54881497D01*
X113890974Y-54974447D01*
X113881716Y-55069814D01*
X113876128Y-55167551D01*
X113874254Y-55267609D01*
X113876251Y-55370912D01*
X113882207Y-55471763D01*
X113892073Y-55570107D01*
X113905798Y-55665891D01*
X113923331Y-55759060D01*
X113944622Y-55849560D01*
X113969621Y-55937337D01*
X113998278Y-56022336D01*
X114030541Y-56104503D01*
X114066361Y-56183784D01*
X114105687Y-56260124D01*
X114148470Y-56333470D01*
X114194657Y-56403767D01*
X114244200Y-56470960D01*
X114297047Y-56534997D01*
X114353149Y-56595821D01*
X114412455Y-56653380D01*
X114474914Y-56707618D01*
X114540477Y-56758482D01*
X114609092Y-56805917D01*
X114680709Y-56849869D01*
X114755279Y-56890284D01*
X114832750Y-56927107D01*
X114913073Y-56960285D01*
X114996196Y-56989762D01*
X115082070Y-57015486D01*
X115170644Y-57037400D01*
X115261867Y-57055452D01*
X115355690Y-57069587D01*
X115452062Y-57079750D01*
X115550933Y-57085888D01*
X115652251Y-57087946D01*
X115749624Y-57085992D01*
X115844604Y-57080165D01*
X115937151Y-57070523D01*
X116027230Y-57057119D01*
X116114803Y-57040011D01*
X116199832Y-57019252D01*
X116282279Y-56994900D01*
X116362108Y-56967009D01*
X116439281Y-56935635D01*
X116513760Y-56900834D01*
X116585508Y-56862660D01*
X116654487Y-56821171D01*
X116720660Y-56776420D01*
X116783990Y-56728464D01*
X116844439Y-56677359D01*
X116901969Y-56623160D01*
X116956543Y-56565922D01*
X117008124Y-56505701D01*
X117056675Y-56442552D01*
X117102157Y-56376532D01*
X117144533Y-56307695D01*
X117183766Y-56236097D01*
X117219818Y-56161794D01*
X117252652Y-56084842D01*
X117282230Y-56005295D01*
X117308516Y-55923210D01*
X117331471Y-55838642D01*
X117351058Y-55751646D01*
X117367239Y-55662279D01*
X117379978Y-55570595D01*
X117389236Y-55476650D01*
X117394976Y-55380500D01*
X118164034Y-55380506D01*
X118156648Y-55516567D01*
X118143810Y-55649530D01*
X118125604Y-55779314D01*
X118102119Y-55905841D01*
X118073440Y-56029029D01*
X118039654Y-56148799D01*
X118000847Y-56265071D01*
X117957107Y-56377764D01*
X117908520Y-56486798D01*
X117855172Y-56592094D01*
X117797150Y-56693570D01*
X117734540Y-56791148D01*
X117667429Y-56884746D01*
X117595904Y-56974286D01*
X117520051Y-57059686D01*
X117439956Y-57140867D01*
X117355707Y-57217748D01*
X117267390Y-57290250D01*
X117175090Y-57358292D01*
X117078896Y-57421794D01*
X116978893Y-57480676D01*
X116875168Y-57534859D01*
X116767808Y-57584261D01*
X116656899Y-57628803D01*
X116542527Y-57668405D01*
X116424780Y-57702986D01*
X116303743Y-57732467D01*
X116179504Y-57756768D01*
X116052148Y-57775808D01*
X115921764Y-57789507D01*
X115788436Y-57797785D01*
X115652251Y-57800562D01*
X115509038Y-57797822D01*
X115369170Y-57789634D01*
X115232725Y-57776052D01*
X115099782Y-57757126D01*
X114970421Y-57732909D01*
X114844719Y-57703452D01*
X114722757Y-57668807D01*
X114604612Y-57629024D01*
X114490363Y-57584157D01*
X114380090Y-57534257D01*
X114273871Y-57479375D01*
X114171784Y-57419563D01*
X114073909Y-57354873D01*
X113980325Y-57285356D01*
X113891109Y-57211064D01*
X113806342Y-57132049D01*
X113726102Y-57048363D01*
X113650467Y-56960056D01*
X113579517Y-56867182D01*
X113513330Y-56769791D01*
X113451985Y-56667935D01*
X113395561Y-56561665D01*
X113344137Y-56451035D01*
X113297791Y-56336094D01*
X113256603Y-56216895D01*
X113220650Y-56093490D01*
X113190013Y-55965930D01*
X113164769Y-55834266D01*
X113144998Y-55698552D01*
X113130778Y-55558837D01*
X113122188Y-55415174D01*
X113119308Y-55267615D01*
X113122165Y-55127005D01*
X113130675Y-54989649D01*
X113144742Y-54855619D01*
X113164273Y-54724985D01*
X113189173Y-54597819D01*
X113219348Y-54474191D01*
X113254703Y-54354173D01*
X113295145Y-54237835D01*
X113340579Y-54125249D01*
X113390910Y-54016486D01*
X113446045Y-53911616D01*
X113505889Y-53810712D01*
X113570347Y-53713843D01*
X113639326Y-53621081D01*
X113712731Y-53532498D01*
X113790468Y-53448163D01*
X113872442Y-53368149D01*
X113958559Y-53292526D01*
X114048725Y-53221365D01*
X114142846Y-53154737D01*
X114240827Y-53092714D01*
X114342574Y-53035366D01*
X114447993Y-52982765D01*
X114556989Y-52934981D01*
X114669468Y-52892086D01*
X114785335Y-52854150D01*
X114904497Y-52821245D01*
X115026859Y-52793442D01*
X115152327Y-52770812D01*
X115280807Y-52753425D01*
X115412203Y-52741354D01*
X115546422Y-52734668D01*
X115546422Y-53454334D01*
G37*
X99466814Y-57730005D02*
X98733037Y-57730005D01*
X98733037Y-55359333D01*
X99466814Y-54301001D01*
X99466814Y-57730005D01*
G36*
X99466814Y-57730005D02*
G01*
X98733037Y-57730005D01*
X98733037Y-55359333D01*
X99466814Y-54301001D01*
X99466814Y-57730005D01*
G37*
X90202865Y-57730005D02*
X89377361Y-57730005D01*
X87945083Y-53419056D01*
X87902749Y-53419056D01*
X86371694Y-57730005D01*
X85489748Y-57730005D01*
X87380639Y-52805225D01*
X88467196Y-52805225D01*
X90202865Y-57730005D01*
G36*
X90202865Y-57730005D02*
G01*
X89377361Y-57730005D01*
X87945083Y-53419056D01*
X87902749Y-53419056D01*
X86371694Y-57730005D01*
X85489748Y-57730005D01*
X87380639Y-52805225D01*
X88467196Y-52805225D01*
X90202865Y-57730005D01*
G37*
X108864812Y-56579951D02*
X111475365Y-52805225D01*
X112216201Y-52805225D01*
X108914196Y-57730005D01*
X108131032Y-57730005D01*
X108131032Y-52805225D01*
X108843642Y-52805225D01*
X108864812Y-56579951D01*
G36*
X108864812Y-56579951D02*
G01*
X111475365Y-52805225D01*
X112216201Y-52805225D01*
X108914196Y-57730005D01*
X108131032Y-57730005D01*
X108131032Y-52805225D01*
X108843642Y-52805225D01*
X108864812Y-56579951D01*
G37*
X102740594Y-53454334D02*
X102645165Y-53460196D01*
X102552057Y-53469815D01*
X102461316Y-53483140D01*
X102372988Y-53500126D01*
X102287120Y-53520724D01*
X102203758Y-53544887D01*
X102122949Y-53572566D01*
X102044739Y-53603713D01*
X101969175Y-53638282D01*
X101896303Y-53676224D01*
X101826171Y-53717491D01*
X101758823Y-53762036D01*
X101694308Y-53809811D01*
X101632671Y-53860767D01*
X101573958Y-53914858D01*
X101518218Y-53972035D01*
X101465495Y-54032250D01*
X101415836Y-54095457D01*
X101369289Y-54161606D01*
X101325898Y-54230651D01*
X101285712Y-54302543D01*
X101248776Y-54377234D01*
X101215138Y-54454677D01*
X101184842Y-54534825D01*
X101157937Y-54617628D01*
X101134468Y-54703040D01*
X101114482Y-54791012D01*
X101098026Y-54881497D01*
X101085146Y-54974447D01*
X101075888Y-55069814D01*
X101070299Y-55167551D01*
X101068426Y-55267609D01*
X101070422Y-55370912D01*
X101076379Y-55471763D01*
X101086244Y-55570107D01*
X101099969Y-55665891D01*
X101117502Y-55759060D01*
X101138793Y-55849560D01*
X101163793Y-55937337D01*
X101192449Y-56022336D01*
X101224713Y-56104503D01*
X101260533Y-56183784D01*
X101299860Y-56260124D01*
X101342642Y-56333470D01*
X101388830Y-56403767D01*
X101438373Y-56470960D01*
X101491220Y-56534997D01*
X101547322Y-56595821D01*
X101606628Y-56653380D01*
X101669088Y-56707618D01*
X101734650Y-56758482D01*
X101803266Y-56805917D01*
X101874884Y-56849869D01*
X101949453Y-56890284D01*
X102026925Y-56927107D01*
X102107248Y-56960285D01*
X102190371Y-56989762D01*
X102276245Y-57015486D01*
X102364820Y-57037400D01*
X102456043Y-57055452D01*
X102549867Y-57069587D01*
X102646239Y-57079750D01*
X102745110Y-57085888D01*
X102846428Y-57087946D01*
X102943801Y-57085992D01*
X103038780Y-57080165D01*
X103131328Y-57070523D01*
X103221407Y-57057119D01*
X103308979Y-57040011D01*
X103394008Y-57019252D01*
X103476455Y-56994900D01*
X103556284Y-56967009D01*
X103633457Y-56935635D01*
X103707936Y-56900834D01*
X103779683Y-56862660D01*
X103848663Y-56821171D01*
X103914836Y-56776420D01*
X103978166Y-56728464D01*
X104038614Y-56677359D01*
X104096145Y-56623160D01*
X104150719Y-56565922D01*
X104202300Y-56505701D01*
X104250850Y-56442552D01*
X104296332Y-56376532D01*
X104338708Y-56307695D01*
X104377941Y-56236097D01*
X104413993Y-56161794D01*
X104446828Y-56084842D01*
X104476406Y-56005295D01*
X104502691Y-55923210D01*
X104525646Y-55838642D01*
X104545233Y-55751646D01*
X104561414Y-55662279D01*
X104574152Y-55570595D01*
X104583410Y-55476650D01*
X104589150Y-55380500D01*
X105358202Y-55380506D01*
X105350817Y-55516567D01*
X105337978Y-55649530D01*
X105319773Y-55779314D01*
X105296287Y-55905841D01*
X105267608Y-56029029D01*
X105233823Y-56148799D01*
X105195016Y-56265071D01*
X105151276Y-56377764D01*
X105102689Y-56486798D01*
X105049341Y-56592094D01*
X104991319Y-56693570D01*
X104928710Y-56791148D01*
X104861599Y-56884746D01*
X104790074Y-56974286D01*
X104714221Y-57059686D01*
X104634126Y-57140867D01*
X104549877Y-57217748D01*
X104461560Y-57290250D01*
X104369261Y-57358292D01*
X104273067Y-57421794D01*
X104173064Y-57480676D01*
X104069339Y-57534859D01*
X103961979Y-57584261D01*
X103851070Y-57628803D01*
X103736699Y-57668405D01*
X103618952Y-57702986D01*
X103497915Y-57732467D01*
X103373677Y-57756768D01*
X103246321Y-57775808D01*
X103115937Y-57789507D01*
X102982609Y-57797785D01*
X102846425Y-57800562D01*
X102703212Y-57797822D01*
X102563343Y-57789634D01*
X102426898Y-57776052D01*
X102293955Y-57757126D01*
X102164594Y-57732909D01*
X102038892Y-57703452D01*
X101916929Y-57668807D01*
X101798784Y-57629024D01*
X101684536Y-57584157D01*
X101574262Y-57534257D01*
X101468043Y-57479375D01*
X101365956Y-57419563D01*
X101268081Y-57354873D01*
X101174496Y-57285356D01*
X101085281Y-57211064D01*
X101000514Y-57132049D01*
X100920273Y-57048363D01*
X100844639Y-56960056D01*
X100773688Y-56867182D01*
X100707501Y-56769791D01*
X100646156Y-56667935D01*
X100589732Y-56561665D01*
X100538308Y-56451035D01*
X100491962Y-56336094D01*
X100450774Y-56216895D01*
X100414821Y-56093490D01*
X100384184Y-55965930D01*
X100358940Y-55834266D01*
X100339169Y-55698552D01*
X100324949Y-55558837D01*
X100316359Y-55415174D01*
X100313479Y-55267615D01*
X100316336Y-55127005D01*
X100324846Y-54989649D01*
X100338913Y-54855619D01*
X100358444Y-54724985D01*
X100383344Y-54597819D01*
X100413519Y-54474191D01*
X100448875Y-54354173D01*
X100489317Y-54237835D01*
X100534751Y-54125249D01*
X100585082Y-54016486D01*
X100640217Y-53911616D01*
X100700061Y-53810712D01*
X100764519Y-53713843D01*
X100833498Y-53621081D01*
X100906903Y-53532498D01*
X100984640Y-53448163D01*
X101066614Y-53368149D01*
X101152732Y-53292526D01*
X101242898Y-53221365D01*
X101337019Y-53154737D01*
X101435000Y-53092714D01*
X101536747Y-53035366D01*
X101642165Y-52982765D01*
X101751161Y-52934981D01*
X101863640Y-52892086D01*
X101979508Y-52854150D01*
X102098669Y-52821245D01*
X102221031Y-52793442D01*
X102346499Y-52770812D01*
X102474978Y-52753425D01*
X102606374Y-52741354D01*
X102740594Y-52734668D01*
X102740594Y-53454334D01*
G36*
X102740594Y-53454334D02*
G01*
X102645165Y-53460196D01*
X102552057Y-53469815D01*
X102461316Y-53483140D01*
X102372988Y-53500126D01*
X102287120Y-53520724D01*
X102203758Y-53544887D01*
X102122949Y-53572566D01*
X102044739Y-53603713D01*
X101969175Y-53638282D01*
X101896303Y-53676224D01*
X101826171Y-53717491D01*
X101758823Y-53762036D01*
X101694308Y-53809811D01*
X101632671Y-53860767D01*
X101573958Y-53914858D01*
X101518218Y-53972035D01*
X101465495Y-54032250D01*
X101415836Y-54095457D01*
X101369289Y-54161606D01*
X101325898Y-54230651D01*
X101285712Y-54302543D01*
X101248776Y-54377234D01*
X101215138Y-54454677D01*
X101184842Y-54534825D01*
X101157937Y-54617628D01*
X101134468Y-54703040D01*
X101114482Y-54791012D01*
X101098026Y-54881497D01*
X101085146Y-54974447D01*
X101075888Y-55069814D01*
X101070299Y-55167551D01*
X101068426Y-55267609D01*
X101070422Y-55370912D01*
X101076379Y-55471763D01*
X101086244Y-55570107D01*
X101099969Y-55665891D01*
X101117502Y-55759060D01*
X101138793Y-55849560D01*
X101163793Y-55937337D01*
X101192449Y-56022336D01*
X101224713Y-56104503D01*
X101260533Y-56183784D01*
X101299860Y-56260124D01*
X101342642Y-56333470D01*
X101388830Y-56403767D01*
X101438373Y-56470960D01*
X101491220Y-56534997D01*
X101547322Y-56595821D01*
X101606628Y-56653380D01*
X101669088Y-56707618D01*
X101734650Y-56758482D01*
X101803266Y-56805917D01*
X101874884Y-56849869D01*
X101949453Y-56890284D01*
X102026925Y-56927107D01*
X102107248Y-56960285D01*
X102190371Y-56989762D01*
X102276245Y-57015486D01*
X102364820Y-57037400D01*
X102456043Y-57055452D01*
X102549867Y-57069587D01*
X102646239Y-57079750D01*
X102745110Y-57085888D01*
X102846428Y-57087946D01*
X102943801Y-57085992D01*
X103038780Y-57080165D01*
X103131328Y-57070523D01*
X103221407Y-57057119D01*
X103308979Y-57040011D01*
X103394008Y-57019252D01*
X103476455Y-56994900D01*
X103556284Y-56967009D01*
X103633457Y-56935635D01*
X103707936Y-56900834D01*
X103779683Y-56862660D01*
X103848663Y-56821171D01*
X103914836Y-56776420D01*
X103978166Y-56728464D01*
X104038614Y-56677359D01*
X104096145Y-56623160D01*
X104150719Y-56565922D01*
X104202300Y-56505701D01*
X104250850Y-56442552D01*
X104296332Y-56376532D01*
X104338708Y-56307695D01*
X104377941Y-56236097D01*
X104413993Y-56161794D01*
X104446828Y-56084842D01*
X104476406Y-56005295D01*
X104502691Y-55923210D01*
X104525646Y-55838642D01*
X104545233Y-55751646D01*
X104561414Y-55662279D01*
X104574152Y-55570595D01*
X104583410Y-55476650D01*
X104589150Y-55380500D01*
X105358202Y-55380506D01*
X105350817Y-55516567D01*
X105337978Y-55649530D01*
X105319773Y-55779314D01*
X105296287Y-55905841D01*
X105267608Y-56029029D01*
X105233823Y-56148799D01*
X105195016Y-56265071D01*
X105151276Y-56377764D01*
X105102689Y-56486798D01*
X105049341Y-56592094D01*
X104991319Y-56693570D01*
X104928710Y-56791148D01*
X104861599Y-56884746D01*
X104790074Y-56974286D01*
X104714221Y-57059686D01*
X104634126Y-57140867D01*
X104549877Y-57217748D01*
X104461560Y-57290250D01*
X104369261Y-57358292D01*
X104273067Y-57421794D01*
X104173064Y-57480676D01*
X104069339Y-57534859D01*
X103961979Y-57584261D01*
X103851070Y-57628803D01*
X103736699Y-57668405D01*
X103618952Y-57702986D01*
X103497915Y-57732467D01*
X103373677Y-57756768D01*
X103246321Y-57775808D01*
X103115937Y-57789507D01*
X102982609Y-57797785D01*
X102846425Y-57800562D01*
X102703212Y-57797822D01*
X102563343Y-57789634D01*
X102426898Y-57776052D01*
X102293955Y-57757126D01*
X102164594Y-57732909D01*
X102038892Y-57703452D01*
X101916929Y-57668807D01*
X101798784Y-57629024D01*
X101684536Y-57584157D01*
X101574262Y-57534257D01*
X101468043Y-57479375D01*
X101365956Y-57419563D01*
X101268081Y-57354873D01*
X101174496Y-57285356D01*
X101085281Y-57211064D01*
X101000514Y-57132049D01*
X100920273Y-57048363D01*
X100844639Y-56960056D01*
X100773688Y-56867182D01*
X100707501Y-56769791D01*
X100646156Y-56667935D01*
X100589732Y-56561665D01*
X100538308Y-56451035D01*
X100491962Y-56336094D01*
X100450774Y-56216895D01*
X100414821Y-56093490D01*
X100384184Y-55965930D01*
X100358940Y-55834266D01*
X100339169Y-55698552D01*
X100324949Y-55558837D01*
X100316359Y-55415174D01*
X100313479Y-55267615D01*
X100316336Y-55127005D01*
X100324846Y-54989649D01*
X100338913Y-54855619D01*
X100358444Y-54724985D01*
X100383344Y-54597819D01*
X100413519Y-54474191D01*
X100448875Y-54354173D01*
X100489317Y-54237835D01*
X100534751Y-54125249D01*
X100585082Y-54016486D01*
X100640217Y-53911616D01*
X100700061Y-53810712D01*
X100764519Y-53713843D01*
X100833498Y-53621081D01*
X100906903Y-53532498D01*
X100984640Y-53448163D01*
X101066614Y-53368149D01*
X101152732Y-53292526D01*
X101242898Y-53221365D01*
X101337019Y-53154737D01*
X101435000Y-53092714D01*
X101536747Y-53035366D01*
X101642165Y-52982765D01*
X101751161Y-52934981D01*
X101863640Y-52892086D01*
X101979508Y-52854150D01*
X102098669Y-52821245D01*
X102221031Y-52793442D01*
X102346499Y-52770812D01*
X102474978Y-52753425D01*
X102606374Y-52741354D01*
X102740594Y-52734668D01*
X102740594Y-53454334D01*
G37*
X112272646Y-57730005D02*
X111538866Y-57730005D01*
X111538866Y-55359333D01*
X112272646Y-54301001D01*
X112272646Y-57730005D01*
G36*
X112272646Y-57730005D02*
G01*
X111538866Y-57730005D01*
X111538866Y-55359333D01*
X112272646Y-54301001D01*
X112272646Y-57730005D01*
G37*
D11*
X96063171Y-32940857D02*
X96063171Y-32640857D01*
X95591742Y-32512285D02*
X95591742Y-32940857D01*
X95591742Y-32940857D02*
X96491742Y-32940857D01*
X96491742Y-32940857D02*
X96491742Y-32512285D01*
X95591742Y-32126571D02*
X96491742Y-32126571D01*
X96491742Y-32126571D02*
X95591742Y-31612285D01*
X95591742Y-31612285D02*
X96491742Y-31612285D01*
X96491742Y-31269428D02*
X96491742Y-30712285D01*
X96491742Y-30712285D02*
X96148885Y-31012285D01*
X96148885Y-31012285D02*
X96148885Y-30883714D01*
X96148885Y-30883714D02*
X96106028Y-30798000D01*
X96106028Y-30798000D02*
X96063171Y-30755142D01*
X96063171Y-30755142D02*
X95977457Y-30712285D01*
X95977457Y-30712285D02*
X95763171Y-30712285D01*
X95763171Y-30712285D02*
X95677457Y-30755142D01*
X95677457Y-30755142D02*
X95634600Y-30798000D01*
X95634600Y-30798000D02*
X95591742Y-30883714D01*
X95591742Y-30883714D02*
X95591742Y-31140857D01*
X95591742Y-31140857D02*
X95634600Y-31226571D01*
X95634600Y-31226571D02*
X95677457Y-31269428D01*
X101143171Y-32940857D02*
X101143171Y-32640857D01*
X100671742Y-32512285D02*
X100671742Y-32940857D01*
X100671742Y-32940857D02*
X101571742Y-32940857D01*
X101571742Y-32940857D02*
X101571742Y-32512285D01*
X100671742Y-32126571D02*
X101571742Y-32126571D01*
X101571742Y-32126571D02*
X100671742Y-31612285D01*
X100671742Y-31612285D02*
X101571742Y-31612285D01*
X100671742Y-30712285D02*
X100671742Y-31226571D01*
X100671742Y-30969428D02*
X101571742Y-30969428D01*
X101571742Y-30969428D02*
X101443171Y-31055142D01*
X101443171Y-31055142D02*
X101357457Y-31140857D01*
X101357457Y-31140857D02*
X101314600Y-31226571D01*
X101143171Y-82850857D02*
X101143171Y-82550857D01*
X100671742Y-82422285D02*
X100671742Y-82850857D01*
X100671742Y-82850857D02*
X101571742Y-82850857D01*
X101571742Y-82850857D02*
X101571742Y-82422285D01*
X100671742Y-82036571D02*
X101571742Y-82036571D01*
X101571742Y-82036571D02*
X100671742Y-81522285D01*
X100671742Y-81522285D02*
X101571742Y-81522285D01*
X100671742Y-80622285D02*
X100671742Y-81136571D01*
X100671742Y-80879428D02*
X101571742Y-80879428D01*
X101571742Y-80879428D02*
X101443171Y-80965142D01*
X101443171Y-80965142D02*
X101357457Y-81050857D01*
X101357457Y-81050857D02*
X101314600Y-81136571D01*
X93523171Y-32940857D02*
X93523171Y-32640857D01*
X93051742Y-32512285D02*
X93051742Y-32940857D01*
X93051742Y-32940857D02*
X93951742Y-32940857D01*
X93951742Y-32940857D02*
X93951742Y-32512285D01*
X93051742Y-32126571D02*
X93951742Y-32126571D01*
X93951742Y-32126571D02*
X93051742Y-31612285D01*
X93051742Y-31612285D02*
X93951742Y-31612285D01*
X93651742Y-30798000D02*
X93051742Y-30798000D01*
X93994600Y-31012285D02*
X93351742Y-31226571D01*
X93351742Y-31226571D02*
X93351742Y-30669428D01*
X105794600Y-32940857D02*
X105751742Y-32812286D01*
X105751742Y-32812286D02*
X105751742Y-32598000D01*
X105751742Y-32598000D02*
X105794600Y-32512286D01*
X105794600Y-32512286D02*
X105837457Y-32469428D01*
X105837457Y-32469428D02*
X105923171Y-32426571D01*
X105923171Y-32426571D02*
X106008885Y-32426571D01*
X106008885Y-32426571D02*
X106094600Y-32469428D01*
X106094600Y-32469428D02*
X106137457Y-32512286D01*
X106137457Y-32512286D02*
X106180314Y-32598000D01*
X106180314Y-32598000D02*
X106223171Y-32769428D01*
X106223171Y-32769428D02*
X106266028Y-32855143D01*
X106266028Y-32855143D02*
X106308885Y-32898000D01*
X106308885Y-32898000D02*
X106394600Y-32940857D01*
X106394600Y-32940857D02*
X106480314Y-32940857D01*
X106480314Y-32940857D02*
X106566028Y-32898000D01*
X106566028Y-32898000D02*
X106608885Y-32855143D01*
X106608885Y-32855143D02*
X106651742Y-32769428D01*
X106651742Y-32769428D02*
X106651742Y-32555143D01*
X106651742Y-32555143D02*
X106608885Y-32426571D01*
X105751742Y-32040857D02*
X106651742Y-32040857D01*
X106651742Y-32040857D02*
X106651742Y-31826571D01*
X106651742Y-31826571D02*
X106608885Y-31698000D01*
X106608885Y-31698000D02*
X106523171Y-31612285D01*
X106523171Y-31612285D02*
X106437457Y-31569428D01*
X106437457Y-31569428D02*
X106266028Y-31526571D01*
X106266028Y-31526571D02*
X106137457Y-31526571D01*
X106137457Y-31526571D02*
X105966028Y-31569428D01*
X105966028Y-31569428D02*
X105880314Y-31612285D01*
X105880314Y-31612285D02*
X105794600Y-31698000D01*
X105794600Y-31698000D02*
X105751742Y-31826571D01*
X105751742Y-31826571D02*
X105751742Y-32040857D01*
X106008885Y-31183714D02*
X106008885Y-30755143D01*
X105751742Y-31269428D02*
X106651742Y-30969428D01*
X106651742Y-30969428D02*
X105751742Y-30669428D01*
X90983171Y-32940857D02*
X90983171Y-32640857D01*
X90511742Y-32512285D02*
X90511742Y-32940857D01*
X90511742Y-32940857D02*
X91411742Y-32940857D01*
X91411742Y-32940857D02*
X91411742Y-32512285D01*
X90511742Y-32126571D02*
X91411742Y-32126571D01*
X91411742Y-32126571D02*
X90511742Y-31612285D01*
X90511742Y-31612285D02*
X91411742Y-31612285D01*
X91411742Y-30755142D02*
X91411742Y-31183714D01*
X91411742Y-31183714D02*
X90983171Y-31226571D01*
X90983171Y-31226571D02*
X91026028Y-31183714D01*
X91026028Y-31183714D02*
X91068885Y-31098000D01*
X91068885Y-31098000D02*
X91068885Y-30883714D01*
X91068885Y-30883714D02*
X91026028Y-30798000D01*
X91026028Y-30798000D02*
X90983171Y-30755142D01*
X90983171Y-30755142D02*
X90897457Y-30712285D01*
X90897457Y-30712285D02*
X90683171Y-30712285D01*
X90683171Y-30712285D02*
X90597457Y-30755142D01*
X90597457Y-30755142D02*
X90554600Y-30798000D01*
X90554600Y-30798000D02*
X90511742Y-30883714D01*
X90511742Y-30883714D02*
X90511742Y-31098000D01*
X90511742Y-31098000D02*
X90554600Y-31183714D01*
X90554600Y-31183714D02*
X90597457Y-31226571D01*
X90983171Y-82850857D02*
X90983171Y-82550857D01*
X90511742Y-82422285D02*
X90511742Y-82850857D01*
X90511742Y-82850857D02*
X91411742Y-82850857D01*
X91411742Y-82850857D02*
X91411742Y-82422285D01*
X90511742Y-82036571D02*
X91411742Y-82036571D01*
X91411742Y-82036571D02*
X90511742Y-81522285D01*
X90511742Y-81522285D02*
X91411742Y-81522285D01*
X91411742Y-80665142D02*
X91411742Y-81093714D01*
X91411742Y-81093714D02*
X90983171Y-81136571D01*
X90983171Y-81136571D02*
X91026028Y-81093714D01*
X91026028Y-81093714D02*
X91068885Y-81008000D01*
X91068885Y-81008000D02*
X91068885Y-80793714D01*
X91068885Y-80793714D02*
X91026028Y-80708000D01*
X91026028Y-80708000D02*
X90983171Y-80665142D01*
X90983171Y-80665142D02*
X90897457Y-80622285D01*
X90897457Y-80622285D02*
X90683171Y-80622285D01*
X90683171Y-80622285D02*
X90597457Y-80665142D01*
X90597457Y-80665142D02*
X90554600Y-80708000D01*
X90554600Y-80708000D02*
X90511742Y-80793714D01*
X90511742Y-80793714D02*
X90511742Y-81008000D01*
X90511742Y-81008000D02*
X90554600Y-81093714D01*
X90554600Y-81093714D02*
X90597457Y-81136571D01*
X111731742Y-32019428D02*
X111731742Y-32448000D01*
X111731742Y-32448000D02*
X111303171Y-32490857D01*
X111303171Y-32490857D02*
X111346028Y-32448000D01*
X111346028Y-32448000D02*
X111388885Y-32362286D01*
X111388885Y-32362286D02*
X111388885Y-32148000D01*
X111388885Y-32148000D02*
X111346028Y-32062286D01*
X111346028Y-32062286D02*
X111303171Y-32019428D01*
X111303171Y-32019428D02*
X111217457Y-31976571D01*
X111217457Y-31976571D02*
X111003171Y-31976571D01*
X111003171Y-31976571D02*
X110917457Y-32019428D01*
X110917457Y-32019428D02*
X110874600Y-32062286D01*
X110874600Y-32062286D02*
X110831742Y-32148000D01*
X110831742Y-32148000D02*
X110831742Y-32362286D01*
X110831742Y-32362286D02*
X110874600Y-32448000D01*
X110874600Y-32448000D02*
X110917457Y-32490857D01*
X111731742Y-31719428D02*
X110831742Y-31419428D01*
X110831742Y-31419428D02*
X111731742Y-31119428D01*
X93523171Y-82850857D02*
X93523171Y-82550857D01*
X93051742Y-82422285D02*
X93051742Y-82850857D01*
X93051742Y-82850857D02*
X93951742Y-82850857D01*
X93951742Y-82850857D02*
X93951742Y-82422285D01*
X93051742Y-82036571D02*
X93951742Y-82036571D01*
X93951742Y-82036571D02*
X93051742Y-81522285D01*
X93051742Y-81522285D02*
X93951742Y-81522285D01*
X93651742Y-80708000D02*
X93051742Y-80708000D01*
X93994600Y-80922285D02*
X93351742Y-81136571D01*
X93351742Y-81136571D02*
X93351742Y-80579428D01*
X88443171Y-32940857D02*
X88443171Y-32640857D01*
X87971742Y-32512285D02*
X87971742Y-32940857D01*
X87971742Y-32940857D02*
X88871742Y-32940857D01*
X88871742Y-32940857D02*
X88871742Y-32512285D01*
X87971742Y-32126571D02*
X88871742Y-32126571D01*
X88871742Y-32126571D02*
X87971742Y-31612285D01*
X87971742Y-31612285D02*
X88871742Y-31612285D01*
X88871742Y-30798000D02*
X88871742Y-30969428D01*
X88871742Y-30969428D02*
X88828885Y-31055142D01*
X88828885Y-31055142D02*
X88786028Y-31098000D01*
X88786028Y-31098000D02*
X88657457Y-31183714D01*
X88657457Y-31183714D02*
X88486028Y-31226571D01*
X88486028Y-31226571D02*
X88143171Y-31226571D01*
X88143171Y-31226571D02*
X88057457Y-31183714D01*
X88057457Y-31183714D02*
X88014600Y-31140857D01*
X88014600Y-31140857D02*
X87971742Y-31055142D01*
X87971742Y-31055142D02*
X87971742Y-30883714D01*
X87971742Y-30883714D02*
X88014600Y-30798000D01*
X88014600Y-30798000D02*
X88057457Y-30755142D01*
X88057457Y-30755142D02*
X88143171Y-30712285D01*
X88143171Y-30712285D02*
X88357457Y-30712285D01*
X88357457Y-30712285D02*
X88443171Y-30755142D01*
X88443171Y-30755142D02*
X88486028Y-30798000D01*
X88486028Y-30798000D02*
X88528885Y-30883714D01*
X88528885Y-30883714D02*
X88528885Y-31055142D01*
X88528885Y-31055142D02*
X88486028Y-31140857D01*
X88486028Y-31140857D02*
X88443171Y-31183714D01*
X88443171Y-31183714D02*
X88357457Y-31226571D01*
X88443171Y-82850857D02*
X88443171Y-82550857D01*
X87971742Y-82422285D02*
X87971742Y-82850857D01*
X87971742Y-82850857D02*
X88871742Y-82850857D01*
X88871742Y-82850857D02*
X88871742Y-82422285D01*
X87971742Y-82036571D02*
X88871742Y-82036571D01*
X88871742Y-82036571D02*
X87971742Y-81522285D01*
X87971742Y-81522285D02*
X88871742Y-81522285D01*
X88871742Y-80708000D02*
X88871742Y-80879428D01*
X88871742Y-80879428D02*
X88828885Y-80965142D01*
X88828885Y-80965142D02*
X88786028Y-81008000D01*
X88786028Y-81008000D02*
X88657457Y-81093714D01*
X88657457Y-81093714D02*
X88486028Y-81136571D01*
X88486028Y-81136571D02*
X88143171Y-81136571D01*
X88143171Y-81136571D02*
X88057457Y-81093714D01*
X88057457Y-81093714D02*
X88014600Y-81050857D01*
X88014600Y-81050857D02*
X87971742Y-80965142D01*
X87971742Y-80965142D02*
X87971742Y-80793714D01*
X87971742Y-80793714D02*
X88014600Y-80708000D01*
X88014600Y-80708000D02*
X88057457Y-80665142D01*
X88057457Y-80665142D02*
X88143171Y-80622285D01*
X88143171Y-80622285D02*
X88357457Y-80622285D01*
X88357457Y-80622285D02*
X88443171Y-80665142D01*
X88443171Y-80665142D02*
X88486028Y-80708000D01*
X88486028Y-80708000D02*
X88528885Y-80793714D01*
X88528885Y-80793714D02*
X88528885Y-80965142D01*
X88528885Y-80965142D02*
X88486028Y-81050857D01*
X88486028Y-81050857D02*
X88443171Y-81093714D01*
X88443171Y-81093714D02*
X88357457Y-81136571D01*
D10*
X112666143Y-61263771D02*
X112666143Y-59263771D01*
X112666143Y-60216152D02*
X111523286Y-60216152D01*
X111523286Y-61263771D02*
X111523286Y-59263771D01*
X109713762Y-59930437D02*
X109713762Y-61263771D01*
X110570905Y-59930437D02*
X110570905Y-60978056D01*
X110570905Y-60978056D02*
X110475667Y-61168533D01*
X110475667Y-61168533D02*
X110285191Y-61263771D01*
X110285191Y-61263771D02*
X109999476Y-61263771D01*
X109999476Y-61263771D02*
X109809000Y-61168533D01*
X109809000Y-61168533D02*
X109713762Y-61073294D01*
X108761381Y-59930437D02*
X108761381Y-61263771D01*
X108761381Y-60120913D02*
X108666143Y-60025675D01*
X108666143Y-60025675D02*
X108475667Y-59930437D01*
X108475667Y-59930437D02*
X108189952Y-59930437D01*
X108189952Y-59930437D02*
X107999476Y-60025675D01*
X107999476Y-60025675D02*
X107904238Y-60216152D01*
X107904238Y-60216152D02*
X107904238Y-61263771D01*
X106951857Y-61263771D02*
X106951857Y-59930437D01*
X106951857Y-59263771D02*
X107047095Y-59359009D01*
X107047095Y-59359009D02*
X106951857Y-59454247D01*
X106951857Y-59454247D02*
X106856619Y-59359009D01*
X106856619Y-59359009D02*
X106951857Y-59263771D01*
X106951857Y-59263771D02*
X106951857Y-59454247D01*
X106285190Y-59930437D02*
X105523286Y-59930437D01*
X105999476Y-59263771D02*
X105999476Y-60978056D01*
X105999476Y-60978056D02*
X105904238Y-61168533D01*
X105904238Y-61168533D02*
X105713762Y-61263771D01*
X105713762Y-61263771D02*
X105523286Y-61263771D01*
X105047095Y-59930437D02*
X104570905Y-61263771D01*
X104094714Y-59930437D02*
X104570905Y-61263771D01*
X104570905Y-61263771D02*
X104761381Y-61739961D01*
X104761381Y-61739961D02*
X104856619Y-61835199D01*
X104856619Y-61835199D02*
X105047095Y-61930437D01*
X100761380Y-59359009D02*
X100951856Y-59263771D01*
X100951856Y-59263771D02*
X101237570Y-59263771D01*
X101237570Y-59263771D02*
X101523285Y-59359009D01*
X101523285Y-59359009D02*
X101713761Y-59549485D01*
X101713761Y-59549485D02*
X101808999Y-59739961D01*
X101808999Y-59739961D02*
X101904237Y-60120913D01*
X101904237Y-60120913D02*
X101904237Y-60406628D01*
X101904237Y-60406628D02*
X101808999Y-60787580D01*
X101808999Y-60787580D02*
X101713761Y-60978056D01*
X101713761Y-60978056D02*
X101523285Y-61168533D01*
X101523285Y-61168533D02*
X101237570Y-61263771D01*
X101237570Y-61263771D02*
X101047094Y-61263771D01*
X101047094Y-61263771D02*
X100761380Y-61168533D01*
X100761380Y-61168533D02*
X100666142Y-61073294D01*
X100666142Y-61073294D02*
X100666142Y-60406628D01*
X100666142Y-60406628D02*
X101047094Y-60406628D01*
X98666142Y-61263771D02*
X99332809Y-60311390D01*
X99808999Y-61263771D02*
X99808999Y-59263771D01*
X99808999Y-59263771D02*
X99047094Y-59263771D01*
X99047094Y-59263771D02*
X98856618Y-59359009D01*
X98856618Y-59359009D02*
X98761380Y-59454247D01*
X98761380Y-59454247D02*
X98666142Y-59644723D01*
X98666142Y-59644723D02*
X98666142Y-59930437D01*
X98666142Y-59930437D02*
X98761380Y-60120913D01*
X98761380Y-60120913D02*
X98856618Y-60216152D01*
X98856618Y-60216152D02*
X99047094Y-60311390D01*
X99047094Y-60311390D02*
X99808999Y-60311390D01*
X97808999Y-59263771D02*
X97808999Y-60882818D01*
X97808999Y-60882818D02*
X97713761Y-61073294D01*
X97713761Y-61073294D02*
X97618523Y-61168533D01*
X97618523Y-61168533D02*
X97428047Y-61263771D01*
X97428047Y-61263771D02*
X97047094Y-61263771D01*
X97047094Y-61263771D02*
X96856618Y-61168533D01*
X96856618Y-61168533D02*
X96761380Y-61073294D01*
X96761380Y-61073294D02*
X96666142Y-60882818D01*
X96666142Y-60882818D02*
X96666142Y-59263771D01*
X94189951Y-59930437D02*
X94189951Y-61930437D01*
X94189951Y-60025675D02*
X93999475Y-59930437D01*
X93999475Y-59930437D02*
X93618522Y-59930437D01*
X93618522Y-59930437D02*
X93428046Y-60025675D01*
X93428046Y-60025675D02*
X93332808Y-60120913D01*
X93332808Y-60120913D02*
X93237570Y-60311390D01*
X93237570Y-60311390D02*
X93237570Y-60882818D01*
X93237570Y-60882818D02*
X93332808Y-61073294D01*
X93332808Y-61073294D02*
X93428046Y-61168533D01*
X93428046Y-61168533D02*
X93618522Y-61263771D01*
X93618522Y-61263771D02*
X93999475Y-61263771D01*
X93999475Y-61263771D02*
X94189951Y-61168533D01*
X91523284Y-61263771D02*
X91523284Y-60216152D01*
X91523284Y-60216152D02*
X91618522Y-60025675D01*
X91618522Y-60025675D02*
X91808998Y-59930437D01*
X91808998Y-59930437D02*
X92189951Y-59930437D01*
X92189951Y-59930437D02*
X92380427Y-60025675D01*
X91523284Y-61168533D02*
X91713760Y-61263771D01*
X91713760Y-61263771D02*
X92189951Y-61263771D01*
X92189951Y-61263771D02*
X92380427Y-61168533D01*
X92380427Y-61168533D02*
X92475665Y-60978056D01*
X92475665Y-60978056D02*
X92475665Y-60787580D01*
X92475665Y-60787580D02*
X92380427Y-60597104D01*
X92380427Y-60597104D02*
X92189951Y-60501866D01*
X92189951Y-60501866D02*
X91713760Y-60501866D01*
X91713760Y-60501866D02*
X91523284Y-60406628D01*
X90570903Y-59930437D02*
X90570903Y-61263771D01*
X90570903Y-60120913D02*
X90475665Y-60025675D01*
X90475665Y-60025675D02*
X90285189Y-59930437D01*
X90285189Y-59930437D02*
X89999474Y-59930437D01*
X89999474Y-59930437D02*
X89808998Y-60025675D01*
X89808998Y-60025675D02*
X89713760Y-60216152D01*
X89713760Y-60216152D02*
X89713760Y-61263771D01*
X87999474Y-61168533D02*
X88189950Y-61263771D01*
X88189950Y-61263771D02*
X88570903Y-61263771D01*
X88570903Y-61263771D02*
X88761379Y-61168533D01*
X88761379Y-61168533D02*
X88856617Y-60978056D01*
X88856617Y-60978056D02*
X88856617Y-60216152D01*
X88856617Y-60216152D02*
X88761379Y-60025675D01*
X88761379Y-60025675D02*
X88570903Y-59930437D01*
X88570903Y-59930437D02*
X88189950Y-59930437D01*
X88189950Y-59930437D02*
X87999474Y-60025675D01*
X87999474Y-60025675D02*
X87904236Y-60216152D01*
X87904236Y-60216152D02*
X87904236Y-60406628D01*
X87904236Y-60406628D02*
X88856617Y-60597104D01*
X86761379Y-61263771D02*
X86951855Y-61168533D01*
X86951855Y-61168533D02*
X87047093Y-60978056D01*
X87047093Y-60978056D02*
X87047093Y-59263771D01*
D11*
X104068885Y-32533713D02*
X104111742Y-32619428D01*
X104111742Y-32619428D02*
X104111742Y-32747999D01*
X104111742Y-32747999D02*
X104068885Y-32876570D01*
X104068885Y-32876570D02*
X103983171Y-32962285D01*
X103983171Y-32962285D02*
X103897457Y-33005142D01*
X103897457Y-33005142D02*
X103726028Y-33047999D01*
X103726028Y-33047999D02*
X103597457Y-33047999D01*
X103597457Y-33047999D02*
X103426028Y-33005142D01*
X103426028Y-33005142D02*
X103340314Y-32962285D01*
X103340314Y-32962285D02*
X103254600Y-32876570D01*
X103254600Y-32876570D02*
X103211742Y-32747999D01*
X103211742Y-32747999D02*
X103211742Y-32662285D01*
X103211742Y-32662285D02*
X103254600Y-32533713D01*
X103254600Y-32533713D02*
X103297457Y-32490856D01*
X103297457Y-32490856D02*
X103597457Y-32490856D01*
X103597457Y-32490856D02*
X103597457Y-32662285D01*
X103211742Y-32105142D02*
X104111742Y-32105142D01*
X104111742Y-32105142D02*
X103211742Y-31590856D01*
X103211742Y-31590856D02*
X104111742Y-31590856D01*
X103211742Y-31162285D02*
X104111742Y-31162285D01*
X104111742Y-31162285D02*
X104111742Y-30947999D01*
X104111742Y-30947999D02*
X104068885Y-30819428D01*
X104068885Y-30819428D02*
X103983171Y-30733713D01*
X103983171Y-30733713D02*
X103897457Y-30690856D01*
X103897457Y-30690856D02*
X103726028Y-30647999D01*
X103726028Y-30647999D02*
X103597457Y-30647999D01*
X103597457Y-30647999D02*
X103426028Y-30690856D01*
X103426028Y-30690856D02*
X103340314Y-30733713D01*
X103340314Y-30733713D02*
X103254600Y-30819428D01*
X103254600Y-30819428D02*
X103211742Y-30947999D01*
X103211742Y-30947999D02*
X103211742Y-31162285D01*
X98603171Y-32940857D02*
X98603171Y-32640857D01*
X98131742Y-32512285D02*
X98131742Y-32940857D01*
X98131742Y-32940857D02*
X99031742Y-32940857D01*
X99031742Y-32940857D02*
X99031742Y-32512285D01*
X98131742Y-32126571D02*
X99031742Y-32126571D01*
X99031742Y-32126571D02*
X98131742Y-31612285D01*
X98131742Y-31612285D02*
X99031742Y-31612285D01*
X98946028Y-31226571D02*
X98988885Y-31183714D01*
X98988885Y-31183714D02*
X99031742Y-31098000D01*
X99031742Y-31098000D02*
X99031742Y-30883714D01*
X99031742Y-30883714D02*
X98988885Y-30798000D01*
X98988885Y-30798000D02*
X98946028Y-30755142D01*
X98946028Y-30755142D02*
X98860314Y-30712285D01*
X98860314Y-30712285D02*
X98774600Y-30712285D01*
X98774600Y-30712285D02*
X98646028Y-30755142D01*
X98646028Y-30755142D02*
X98131742Y-31269428D01*
X98131742Y-31269428D02*
X98131742Y-30712285D01*
X98603171Y-82850857D02*
X98603171Y-82550857D01*
X98131742Y-82422285D02*
X98131742Y-82850857D01*
X98131742Y-82850857D02*
X99031742Y-82850857D01*
X99031742Y-82850857D02*
X99031742Y-82422285D01*
X98131742Y-82036571D02*
X99031742Y-82036571D01*
X99031742Y-82036571D02*
X98131742Y-81522285D01*
X98131742Y-81522285D02*
X99031742Y-81522285D01*
X98946028Y-81136571D02*
X98988885Y-81093714D01*
X98988885Y-81093714D02*
X99031742Y-81008000D01*
X99031742Y-81008000D02*
X99031742Y-80793714D01*
X99031742Y-80793714D02*
X98988885Y-80708000D01*
X98988885Y-80708000D02*
X98946028Y-80665142D01*
X98946028Y-80665142D02*
X98860314Y-80622285D01*
X98860314Y-80622285D02*
X98774600Y-80622285D01*
X98774600Y-80622285D02*
X98646028Y-80665142D01*
X98646028Y-80665142D02*
X98131742Y-81179428D01*
X98131742Y-81179428D02*
X98131742Y-80622285D01*
X108334600Y-32919428D02*
X108291742Y-32790857D01*
X108291742Y-32790857D02*
X108291742Y-32576571D01*
X108291742Y-32576571D02*
X108334600Y-32490857D01*
X108334600Y-32490857D02*
X108377457Y-32447999D01*
X108377457Y-32447999D02*
X108463171Y-32405142D01*
X108463171Y-32405142D02*
X108548885Y-32405142D01*
X108548885Y-32405142D02*
X108634600Y-32447999D01*
X108634600Y-32447999D02*
X108677457Y-32490857D01*
X108677457Y-32490857D02*
X108720314Y-32576571D01*
X108720314Y-32576571D02*
X108763171Y-32747999D01*
X108763171Y-32747999D02*
X108806028Y-32833714D01*
X108806028Y-32833714D02*
X108848885Y-32876571D01*
X108848885Y-32876571D02*
X108934600Y-32919428D01*
X108934600Y-32919428D02*
X109020314Y-32919428D01*
X109020314Y-32919428D02*
X109106028Y-32876571D01*
X109106028Y-32876571D02*
X109148885Y-32833714D01*
X109148885Y-32833714D02*
X109191742Y-32747999D01*
X109191742Y-32747999D02*
X109191742Y-32533714D01*
X109191742Y-32533714D02*
X109148885Y-32405142D01*
X108377457Y-31505142D02*
X108334600Y-31547999D01*
X108334600Y-31547999D02*
X108291742Y-31676571D01*
X108291742Y-31676571D02*
X108291742Y-31762285D01*
X108291742Y-31762285D02*
X108334600Y-31890856D01*
X108334600Y-31890856D02*
X108420314Y-31976571D01*
X108420314Y-31976571D02*
X108506028Y-32019428D01*
X108506028Y-32019428D02*
X108677457Y-32062285D01*
X108677457Y-32062285D02*
X108806028Y-32062285D01*
X108806028Y-32062285D02*
X108977457Y-32019428D01*
X108977457Y-32019428D02*
X109063171Y-31976571D01*
X109063171Y-31976571D02*
X109148885Y-31890856D01*
X109148885Y-31890856D02*
X109191742Y-31762285D01*
X109191742Y-31762285D02*
X109191742Y-31676571D01*
X109191742Y-31676571D02*
X109148885Y-31547999D01*
X109148885Y-31547999D02*
X109106028Y-31505142D01*
X108291742Y-30690856D02*
X108291742Y-31119428D01*
X108291742Y-31119428D02*
X109191742Y-31119428D01*
X96063171Y-82850857D02*
X96063171Y-82550857D01*
X95591742Y-82422285D02*
X95591742Y-82850857D01*
X95591742Y-82850857D02*
X96491742Y-82850857D01*
X96491742Y-82850857D02*
X96491742Y-82422285D01*
X95591742Y-82036571D02*
X96491742Y-82036571D01*
X96491742Y-82036571D02*
X95591742Y-81522285D01*
X95591742Y-81522285D02*
X96491742Y-81522285D01*
X96491742Y-81179428D02*
X96491742Y-80622285D01*
X96491742Y-80622285D02*
X96148885Y-80922285D01*
X96148885Y-80922285D02*
X96148885Y-80793714D01*
X96148885Y-80793714D02*
X96106028Y-80708000D01*
X96106028Y-80708000D02*
X96063171Y-80665142D01*
X96063171Y-80665142D02*
X95977457Y-80622285D01*
X95977457Y-80622285D02*
X95763171Y-80622285D01*
X95763171Y-80622285D02*
X95677457Y-80665142D01*
X95677457Y-80665142D02*
X95634600Y-80708000D01*
X95634600Y-80708000D02*
X95591742Y-80793714D01*
X95591742Y-80793714D02*
X95591742Y-81050857D01*
X95591742Y-81050857D02*
X95634600Y-81136571D01*
X95634600Y-81136571D02*
X95677457Y-81179428D01*
%TO.C,JP1*%
D12*
X101929000Y-79628000D02*
X100229000Y-79628000D01*
X100229000Y-76828000D01*
X101929000Y-76828000D01*
X101929000Y-79628000D01*
%TO.C,JP4*%
X92609000Y-76828000D02*
X94309000Y-76828000D01*
X94309000Y-79628000D01*
X92609000Y-79628000D01*
X92609000Y-76828000D01*
%TO.C,JP6*%
X87529000Y-76828000D02*
X89229000Y-76828000D01*
X89229000Y-79628000D01*
X87529000Y-79628000D01*
X87529000Y-76828000D01*
%TO.C,JP3*%
X96849000Y-79628000D02*
X95149000Y-79628000D01*
X95149000Y-76828000D01*
X96849000Y-76828000D01*
X96849000Y-79628000D01*
%TO.C,JP5*%
X90069000Y-76828000D02*
X91769000Y-76828000D01*
X91769000Y-79628000D01*
X90069000Y-79628000D01*
X90069000Y-76828000D01*
%TO.C,JP2*%
X99389000Y-79628000D02*
X97689000Y-79628000D01*
X97689000Y-76828000D01*
X99389000Y-76828000D01*
X99389000Y-79628000D01*
%TD*%
M02*
