M48
; DRILL file {KiCad 9.0.0} date 2025-05-29T22:21:56+0200
; FORMAT={-:-/ absolute / inch / decimal}
; #@! TF.CreationDate,2025-05-29T22:21:56+02:00
; #@! TF.GenerationSoftware,Kicad,Pcbnew,9.0.0
; #@! TF.FileFunction,Plated,1,2,PTH
FMAT,2
INCH
; #@! TA.AperFunction,Plated,PTH,ViaDrill
T1C0.0197
; #@! TA.AperFunction,Plated,PTH,ViaDrill
T2C0.0276
; #@! TA.AperFunction,Plated,PTH,ComponentDrill
T3C0.0394
%
G90
G05
T1
X4.8744Y-1.9115
T2
X3.0437Y-2.876
X3.2052Y-1.2399
X3.2474Y-1.5325
X3.3848Y-3.1113
X4.8153Y-2.876
T3
X3.4795Y-1.3523
X3.4795Y-2.9224
X3.5795Y-1.3523
X3.5795Y-2.9224
X3.6795Y-1.3523
X3.6795Y-2.9224
X3.7795Y-1.3523
X3.7795Y-2.9224
X3.8795Y-1.3523
X3.8795Y-2.9224
X3.9795Y-1.3523
X3.9795Y-2.9224
X4.0795Y-1.3523
X4.0795Y-2.9224
X4.1795Y-1.3523
X4.1795Y-2.9224
X4.2795Y-1.3523
X4.2795Y-2.9224
X4.3795Y-1.3523
X4.3795Y-2.9224
M30
